#!OML:ASF F:\VICON\USERDATA\INSTALL\rory3\rory3.ASF
:FULLY-SPECIFIED
:DEGREES
3032
root 4.43614 18.1037 6.94745 -718.749 140.481 -355.129
lowerback 12.8195 2.04795 2.02657
upperback 0.508388 3.21835 1.57935
thorax -6.63745 1.57405 -0.0688374
lowerneck -18.6813 -4.63995 -9.45829
upperneck 33.3832 -3.66718 4.744
head 15.0886 -1.56375 3.10118
rclavicle -1.14301e-014 -1.59028e-014
rhumerus -33.5479 -10.1504 -79.1928
rradius 29.4354
rwrist 4.49355
rhand -17.7419 6.59362
rfingers 7.12502
rthumb 8.51941 -23.2145
lclavicle -1.14301e-014 -1.59028e-014
lhumerus -38.4462 1.73426 84.4446
lradius 29.1655
lwrist -9.27655
lhand -15.8425 24.4846
lfingers 7.12502
lthumb 10.3521 54.2098
rfemur -4.29054 -2.88463 27.0154
rtibia 20.2138
rfoot -10.7273 -3.55647
rtoes 1.96586
lfemur -18.2482 -2.92622 -17.0166
ltibia 61.7981
lfoot -1.13957 -7.62953
ltoes 0.788478
3033
root 4.52112 18.0849 6.85852 -718.797 140.409 -355.091
lowerback 12.8792 2.14048 2.15348
upperback 0.552897 3.35655 1.50835
thorax -6.6103 1.63747 -0.24123
lowerneck -18.7163 -4.64678 -9.37171
upperneck 33.3625 -3.68753 4.69019
head 15.0846 -1.56894 3.05847
rclavicle -6.18034e-014 6.26172e-015
rhumerus -33.2037 -10.0439 -79.2775
rradius 29.6277
rwrist 4.15804
rhand -17.5335 6.79643
rfingers 7.12502
rthumb 8.72058 -23.0034
lclavicle -6.18034e-014 6.26172e-015
lhumerus -38.5431 1.90048 84.3011
lradius 29.3419
lwrist -9.01553
lhand -16.0252 24.6637
lfingers 7.12502
lthumb 10.1759 54.3976
rfemur -3.9564 -2.79921 27.0757
rtibia 20.6179
rfoot -11.3557 -3.736
rtoes 2.67885
lfemur -19.0288 -2.90621 -17.0373
ltibia 61.2294
lfoot -2.41706 -6.95429
ltoes -1.76188
3034
root 4.60797 18.073 6.76763 -718.753 140.288 -354.997
lowerback 12.8372 2.2032 2.28187
upperback 0.605145 3.45393 1.46531
thorax -6.51945 1.68271 -0.372875
lowerneck -18.7134 -4.63237 -9.33829
upperneck 33.271 -3.66428 4.62465
head 15.0362 -1.56672 3.0251
rclavicle -2.49661e-014 -5.51627e-015
rhumerus -32.8572 -9.64964 -79.4756
rradius 29.8739
rwrist 3.68308
rhand -17.5003 6.99598
rfingers 7.12502
rthumb 8.75255 -22.8025
lclavicle -2.49661e-014 -5.51627e-015
lhumerus -38.6305 1.99043 84.189
lradius 29.4598
lwrist -8.64124
lhand -16.5507 24.262
lfingers 7.12502
lthumb 9.66886 54.0201
rfemur -3.71646 -2.84265 27.1748
rtibia 21.0484
rfoot -11.9879 -3.83195
rtoes 2.68764
lfemur -19.8025 -2.782 -16.9993
ltibia 60.5004
lfoot -3.54886 -6.37175
ltoes -2.85114
3035
root 4.69054 18.0589 6.68031 -718.636 140.205 -354.83
lowerback 12.8396 2.26417 2.4489
upperback 0.602528 3.56137 1.4801
thorax -6.51267 1.73094 -0.470267
lowerneck -18.6107 -4.64581 -9.49927
upperneck 33.1842 -3.66808 4.70732
head 14.98 -1.57804 3.08457
rclavicle -1.58972e-013 8.84592e-015
rhumerus -32.6104 -9.43258 -79.5237
rradius 30.0991
rwrist 3.5347
rhand -17.655 6.91183
rfingers 7.12502
rthumb 8.6033 -22.8929
lclavicle -1.58972e-013 8.84592e-015
lhumerus -38.8637 1.82375 84.3664
lradius 29.672
lwrist -7.5056
lhand -17.9957 23.6793
lfingers 7.12502
lthumb 8.2745 53.4973
rfemur -3.50701 -2.86896 27.3553
rtibia 21.4508
rfoot -12.4654 -3.95005
rtoes 2.02761
lfemur -20.5575 -2.63312 -16.907
ltibia 59.6239
lfoot -4.49184 -5.97204
ltoes -3.33772
3036
root 4.77244 18.038 6.59581 -718.461 140.143 -354.618
lowerback 12.9043 2.33166 2.60404
upperback 0.547714 3.68104 1.52535
thorax -6.5983 1.78356 -0.535437
lowerneck -18.682 -4.65184 -9.54017
upperneck 33.2751 -3.64867 4.71594
head 15.0389 -1.57111 3.10262
rclavicle -7.64451e-014 -1.66979e-014
rhumerus -32.4099 -9.09347 -79.5496
rradius 30.3644
rwrist 3.32889
rhand -17.7908 6.92629
rfingers 7.12502
rthumb 8.47226 -22.8838
lclavicle -7.64451e-014 -1.66979e-014
lhumerus -39.1258 1.86451 84.4838
lradius 29.8845
lwrist -6.57156
lhand -17.9982 23.8737
lfingers 7.12502
lthumb 8.27211 53.6917
rfemur -3.29973 -2.69933 27.6032
rtibia 21.8305
rfoot -12.9027 -4.24563
rtoes 1.77012
lfemur -21.3285 -2.43822 -16.7608
ltibia 58.6011
lfoot -5.27805 -5.63377
ltoes -4.06987
3037
root 4.85698 18.0182 6.50484 -718.4 140.05 -354.563
lowerback 12.8952 2.44168 2.6591
upperback 0.547278 3.83221 1.49701
thorax -6.58453 1.85526 -0.622663
lowerneck -18.8426 -4.65227 -9.35868
upperneck 33.3656 -3.64586 4.58015
head 15.1088 -1.56414 3.0168
rclavicle 2.55873e-014 -1.44119e-015
rhumerus -32.0722 -8.76745 -79.6504
rradius 30.5698
rwrist 2.9333
rhand -17.7923 7.23962
rfingers 7.12502
rthumb 8.47074 -22.5705
lclavicle 2.55873e-014 -1.44119e-015
lhumerus -39.2347 2.10812 84.3714
lradius 29.9767
lwrist -7.06447
lhand -17.6893 24.3746
lfingers 7.12502
lthumb 8.57015 54.1806
rfemur -3.0313 -2.39834 27.7015
rtibia 22.2079
rfoot -13.4427 -4.60542
rtoes 1.92522
lfemur -21.9896 -2.22498 -16.7921
ltibia 57.4096
lfoot -5.87635 -5.19127
ltoes -4.41757
